<svg xmlns="http://www.w3.org/2000/svg" xmlns:xlink="http://www.w3.org/1999/xlink" width="480" zoomAndPan="magnify" viewBox="0 0 360 359.999987" height="480" preserveAspectRatio="xMidYMid meet" version="1.0"><defs><g/></defs><g fill="#ffffff" fill-opacity="1"><g transform="translate(78.419622, 287.813301)"><g><path d="M 7.363281 -3.738281 C 7.363281 -2.882812 7.058594 -2.164062 6.46875 -1.574219 C 5.867188 -0.972656 5.144531 -0.675781 4.304688 -0.675781 C 3.464844 -0.675781 2.742188 -0.972656 2.152344 -1.574219 C 1.550781 -2.164062 1.257812 -2.882812 1.257812 -3.738281 C 1.257812 -4.566406 1.550781 -5.289062 2.152344 -5.890625 C 2.742188 -6.480469 3.464844 -6.785156 4.304688 -6.785156 C 5.144531 -6.785156 5.867188 -6.480469 6.46875 -5.890625 C 7.058594 -5.289062 7.363281 -4.566406 7.363281 -3.738281 Z M 8.128906 -3.738281 C 8.128906 -4.261719 8.019531 -4.753906 7.824219 -5.222656 C 7.625 -5.679688 7.351562 -6.085938 7.003906 -6.433594 C 6.652344 -6.773438 6.25 -7.046875 5.789062 -7.242188 C 5.320312 -7.441406 4.828125 -7.550781 4.304688 -7.550781 C 3.78125 -7.550781 3.277344 -7.441406 2.820312 -7.242188 C 2.359375 -7.046875 1.957031 -6.773438 1.605469 -6.433594 C 1.257812 -6.085938 0.984375 -5.679688 0.785156 -5.222656 C 0.589844 -4.753906 0.492188 -4.261719 0.492188 -3.738281 C 0.492188 -3.210938 0.589844 -2.710938 0.785156 -2.25 C 0.984375 -1.78125 1.257812 -1.375 1.605469 -1.027344 C 1.957031 -0.675781 2.359375 -0.402344 2.820312 -0.207031 C 3.277344 -0.0117188 3.78125 0.0859375 4.304688 0.0859375 C 4.828125 0.0859375 5.320312 -0.0117188 5.789062 -0.207031 C 6.25 -0.402344 6.652344 -0.675781 7.003906 -1.027344 C 7.351562 -1.375 7.625 -1.78125 7.824219 -2.25 C 8.019531 -2.710938 8.128906 -3.210938 8.128906 -3.738281 Z M 8.128906 -3.738281 "/></g></g></g><g fill="#ffffff" fill-opacity="1"><g transform="translate(88.350491, 287.813301)"><g><path d="M 1.585938 -5.472656 L 5.757812 0.457031 L 5.757812 -7.429688 L 4.992188 -7.429688 L 4.992188 -1.964844 L 0.820312 -7.898438 L 0.820312 0 L 1.585938 0 Z M 1.585938 -5.472656 "/></g></g></g><g fill="#ffffff" fill-opacity="1"><g transform="translate(96.238495, 287.813301)"><g/></g></g><g fill="#ffffff" fill-opacity="1"><g transform="translate(100.499594, 287.813301)"><g><path d="M 3.691406 -3.496094 L 6.5 -7.429688 L 5.527344 -7.429688 L 3.3125 -4.25 L 1.09375 -7.429688 L 0.109375 -7.429688 L 2.929688 -3.484375 L 2.929688 0 L 3.691406 0 Z M 3.691406 -3.496094 "/></g></g></g><g fill="#ffffff" fill-opacity="1"><g transform="translate(108.420376, 287.813301)"><g><path d="M 7.363281 -3.738281 C 7.363281 -2.882812 7.058594 -2.164062 6.46875 -1.574219 C 5.867188 -0.972656 5.144531 -0.675781 4.304688 -0.675781 C 3.464844 -0.675781 2.742188 -0.972656 2.152344 -1.574219 C 1.550781 -2.164062 1.257812 -2.882812 1.257812 -3.738281 C 1.257812 -4.566406 1.550781 -5.289062 2.152344 -5.890625 C 2.742188 -6.480469 3.464844 -6.785156 4.304688 -6.785156 C 5.144531 -6.785156 5.867188 -6.480469 6.46875 -5.890625 C 7.058594 -5.289062 7.363281 -4.566406 7.363281 -3.738281 Z M 8.128906 -3.738281 C 8.128906 -4.261719 8.019531 -4.753906 7.824219 -5.222656 C 7.625 -5.679688 7.351562 -6.085938 7.003906 -6.433594 C 6.652344 -6.773438 6.25 -7.046875 5.789062 -7.242188 C 5.320312 -7.441406 4.828125 -7.550781 4.304688 -7.550781 C 3.78125 -7.550781 3.277344 -7.441406 2.820312 -7.242188 C 2.359375 -7.046875 1.957031 -6.773438 1.605469 -6.433594 C 1.257812 -6.085938 0.984375 -5.679688 0.785156 -5.222656 C 0.589844 -4.753906 0.492188 -4.261719 0.492188 -3.738281 C 0.492188 -3.210938 0.589844 -2.710938 0.785156 -2.25 C 0.984375 -1.78125 1.257812 -1.375 1.605469 -1.027344 C 1.957031 -0.675781 2.359375 -0.402344 2.820312 -0.207031 C 3.277344 -0.0117188 3.78125 0.0859375 4.304688 0.0859375 C 4.828125 0.0859375 5.320312 -0.0117188 5.789062 -0.207031 C 6.25 -0.402344 6.652344 -0.675781 7.003906 -1.027344 C 7.351562 -1.375 7.625 -1.78125 7.824219 -2.25 C 8.019531 -2.710938 8.128906 -3.210938 8.128906 -3.738281 Z M 8.128906 -3.738281 "/></g></g></g><g fill="#ffffff" fill-opacity="1"><g transform="translate(118.351246, 287.813301)"><g><path d="M 6.195312 -2.457031 L 6.195312 -7.429688 L 5.429688 -7.429688 L 5.429688 -2.347656 C 5.429688 -2.042969 5.375 -1.792969 5.265625 -1.585938 C 4.949219 -0.972656 4.335938 -0.667969 3.429688 -0.667969 C 2.839844 -0.667969 2.371094 -0.796875 2.019531 -1.058594 C 1.617188 -1.355469 1.421875 -1.78125 1.421875 -2.347656 L 1.421875 -7.429688 L 0.65625 -7.429688 L 0.65625 -2.457031 C 0.65625 -1.648438 0.917969 -1.015625 1.441406 -0.558594 C 1.933594 -0.121094 2.601562 0.0976562 3.429688 0.0976562 C 4.25 0.0976562 4.90625 -0.121094 5.410156 -0.558594 C 5.933594 -1.015625 6.195312 -1.648438 6.195312 -2.457031 Z M 6.195312 -2.457031 "/></g></g></g><g fill="#ffffff" fill-opacity="1"><g transform="translate(126.512365, 287.813301)"><g><path d="M 1.585938 -3.671875 L 1.585938 -6.699219 L 3.3125 -6.699219 C 3.757812 -6.699219 4.117188 -6.554688 4.390625 -6.269531 C 4.65625 -5.988281 4.796875 -5.636719 4.796875 -5.199219 C 4.796875 -4.765625 4.65625 -4.402344 4.371094 -4.109375 C 4.085938 -3.8125 3.738281 -3.671875 3.3125 -3.671875 Z M 5.5625 -5.191406 C 5.5625 -5.824219 5.320312 -6.371094 4.863281 -6.796875 C 4.414062 -7.210938 3.855469 -7.429688 3.203125 -7.429688 L 0.820312 -7.429688 L 0.820312 0 L 1.585938 0 L 1.585938 -2.9375 L 2.46875 -2.9375 L 4.65625 0 L 5.679688 0 L 3.386719 -2.9375 C 3.964844 -2.972656 4.457031 -3.179688 4.863281 -3.5625 C 5.320312 -3.988281 5.5625 -4.535156 5.5625 -5.191406 Z M 5.5625 -5.191406 "/></g></g></g><g fill="#ffffff" fill-opacity="1"><g transform="translate(133.766755, 287.813301)"><g/></g></g><g fill="#ffffff" fill-opacity="1"><g transform="translate(138.027856, 287.813301)"><g><path d="M 2.875 -3.496094 C 3.835938 -3.265625 4.492188 -3.015625 4.839844 -2.730469 C 5.082031 -2.535156 5.199219 -2.285156 5.199219 -1.976562 C 5.199219 -1.671875 5.136719 -1.421875 5.003906 -1.246094 C 4.675781 -0.785156 4.085938 -0.558594 3.257812 -0.558594 C 2.097656 -0.558594 1.441406 -0.949219 1.300781 -1.738281 L 0.402344 -1.738281 C 0.667969 -0.480469 1.617188 0.140625 3.257812 0.140625 C 3.988281 0.140625 4.601562 -0.0117188 5.089844 -0.339844 C 5.679688 -0.722656 5.988281 -1.289062 5.988281 -2.03125 C 5.988281 -2.644531 5.746094 -3.113281 5.265625 -3.441406 C 4.925781 -3.683594 4.382812 -3.902344 3.628906 -4.097656 C 2.863281 -4.292969 2.371094 -4.457031 2.140625 -4.578125 C 1.640625 -4.828125 1.386719 -5.179688 1.398438 -5.636719 C 1.398438 -5.878906 1.441406 -6.085938 1.550781 -6.238281 C 1.835938 -6.664062 2.339844 -6.882812 3.058594 -6.882812 C 4.074219 -6.882812 4.65625 -6.554688 4.808594 -5.921875 L 5.636719 -5.921875 C 5.363281 -6.992188 4.5 -7.539062 3.058594 -7.539062 C 2.402344 -7.539062 1.824219 -7.363281 1.34375 -7.015625 C 0.851562 -6.664062 0.601562 -6.152344 0.601562 -5.453125 C 0.601562 -4.5 1.367188 -3.847656 2.875 -3.496094 Z M 2.875 -3.496094 "/></g></g></g><g fill="#ffffff" fill-opacity="1"><g transform="translate(145.609976, 287.813301)"><g><path d="M 0.21875 -6.742188 L 2.019531 -6.742188 L 2.019531 -0.0234375 L 2.785156 -0.0234375 L 2.785156 -6.742188 L 4.589844 -6.742188 L 4.589844 -7.453125 L 0.21875 -7.453125 Z M 0.21875 -6.742188 "/></g></g></g><g fill="#ffffff" fill-opacity="1"><g transform="translate(151.728226, 287.813301)"><g><path d="M 5.234375 0 L 5.234375 -0.710938 L 1.585938 -0.710938 L 1.585938 -3.355469 L 5.125 -3.355469 L 5.125 -4.074219 L 1.585938 -4.074219 L 1.585938 -6.71875 L 5.234375 -6.71875 L 5.234375 -7.429688 L 0.820312 -7.429688 L 0.820312 0 Z M 5.234375 0 "/></g></g></g><g fill="#ffffff" fill-opacity="1"><g transform="translate(159.091858, 287.813301)"><g><path d="M 1.585938 -0.765625 L 1.585938 -7.429688 L 0.820312 -7.429688 L 0.820312 0 L 4.238281 0 L 4.238281 -0.765625 Z M 1.585938 -0.765625 "/></g></g></g><g fill="#ffffff" fill-opacity="1"><g transform="translate(164.860526, 287.813301)"><g><path d="M 1.585938 -0.765625 L 1.585938 -7.429688 L 0.820312 -7.429688 L 0.820312 0 L 4.238281 0 L 4.238281 -0.765625 Z M 1.585938 -0.765625 "/></g></g></g><g fill="#ffffff" fill-opacity="1"><g transform="translate(170.629195, 287.813301)"><g><path d="M 2.019531 -2.730469 L 3.375 -6.152344 L 4.71875 -2.730469 Z M 6.632812 0 L 3.375 -7.941406 L 0.109375 0 L 0.941406 0 L 1.738281 -2.019531 L 5.003906 -2.019531 L 5.800781 0 Z M 6.632812 0 "/></g></g></g><g fill="#ffffff" fill-opacity="1"><g transform="translate(178.681064, 287.813301)"><g><path d="M 1.585938 -3.671875 L 1.585938 -6.699219 L 3.3125 -6.699219 C 3.757812 -6.699219 4.117188 -6.554688 4.390625 -6.269531 C 4.65625 -5.988281 4.796875 -5.636719 4.796875 -5.199219 C 4.796875 -4.765625 4.65625 -4.402344 4.371094 -4.109375 C 4.085938 -3.8125 3.738281 -3.671875 3.3125 -3.671875 Z M 5.5625 -5.191406 C 5.5625 -5.824219 5.320312 -6.371094 4.863281 -6.796875 C 4.414062 -7.210938 3.855469 -7.429688 3.203125 -7.429688 L 0.820312 -7.429688 L 0.820312 0 L 1.585938 0 L 1.585938 -2.9375 L 2.46875 -2.9375 L 4.65625 0 L 5.679688 0 L 3.386719 -2.9375 C 3.964844 -2.972656 4.457031 -3.179688 4.863281 -3.5625 C 5.320312 -3.988281 5.5625 -4.535156 5.5625 -5.191406 Z M 5.5625 -5.191406 "/></g></g></g><g fill="#ffffff" fill-opacity="1"><g transform="translate(185.935451, 287.813301)"><g/></g></g><g fill="#ffffff" fill-opacity="1"><g transform="translate(190.196548, 287.813301)"><g><path d="M 1.585938 -3.683594 L 1.585938 -6.699219 L 3.3125 -6.699219 C 3.757812 -6.699219 4.117188 -6.554688 4.390625 -6.28125 C 4.65625 -6 4.796875 -5.648438 4.796875 -5.210938 C 4.796875 -4.765625 4.65625 -4.402344 4.371094 -4.109375 C 4.085938 -3.824219 3.738281 -3.683594 3.3125 -3.683594 Z M 5.5625 -5.191406 C 5.5625 -5.84375 5.320312 -6.378906 4.863281 -6.808594 C 4.402344 -7.222656 3.855469 -7.429688 3.203125 -7.429688 L 0.820312 -7.429688 L 0.820312 0 L 1.585938 0 L 1.585938 -2.9375 L 3.203125 -2.9375 C 3.855469 -2.9375 4.414062 -3.148438 4.863281 -3.5625 C 5.320312 -4 5.5625 -4.535156 5.5625 -5.191406 Z M 5.5625 -5.191406 "/></g></g></g><g fill="#ffffff" fill-opacity="1"><g transform="translate(197.287067, 287.813301)"><g><path d="M 5.234375 0 L 5.234375 -0.710938 L 1.585938 -0.710938 L 1.585938 -3.355469 L 5.125 -3.355469 L 5.125 -4.074219 L 1.585938 -4.074219 L 1.585938 -6.71875 L 5.234375 -6.71875 L 5.234375 -7.429688 L 0.820312 -7.429688 L 0.820312 0 Z M 5.234375 0 "/></g></g></g><g fill="#ffffff" fill-opacity="1"><g transform="translate(204.650707, 287.813301)"><g><path d="M 1.585938 -3.671875 L 1.585938 -6.699219 L 3.3125 -6.699219 C 3.757812 -6.699219 4.117188 -6.554688 4.390625 -6.269531 C 4.65625 -5.988281 4.796875 -5.636719 4.796875 -5.199219 C 4.796875 -4.765625 4.65625 -4.402344 4.371094 -4.109375 C 4.085938 -3.8125 3.738281 -3.671875 3.3125 -3.671875 Z M 5.5625 -5.191406 C 5.5625 -5.824219 5.320312 -6.371094 4.863281 -6.796875 C 4.414062 -7.210938 3.855469 -7.429688 3.203125 -7.429688 L 0.820312 -7.429688 L 0.820312 0 L 1.585938 0 L 1.585938 -2.9375 L 2.46875 -2.9375 L 4.65625 0 L 5.679688 0 L 3.386719 -2.9375 C 3.964844 -2.972656 4.457031 -3.179688 4.863281 -3.5625 C 5.320312 -3.988281 5.5625 -4.535156 5.5625 -5.191406 Z M 5.5625 -5.191406 "/></g></g></g><g fill="#ffffff" fill-opacity="1"><g transform="translate(211.905101, 287.813301)"><g><path d="M 5.234375 -6.71875 L 5.234375 -7.429688 L 0.820312 -7.429688 L 0.820312 0 L 1.585938 0 L 1.585938 -3.355469 L 5.125 -3.355469 L 5.125 -4.074219 L 1.585938 -4.074219 L 1.585938 -6.71875 Z M 5.234375 -6.71875 "/></g></g></g><g fill="#ffffff" fill-opacity="1"><g transform="translate(218.667891, 287.813301)"><g><path d="M 7.363281 -3.738281 C 7.363281 -2.882812 7.058594 -2.164062 6.46875 -1.574219 C 5.867188 -0.972656 5.144531 -0.675781 4.304688 -0.675781 C 3.464844 -0.675781 2.742188 -0.972656 2.152344 -1.574219 C 1.550781 -2.164062 1.257812 -2.882812 1.257812 -3.738281 C 1.257812 -4.566406 1.550781 -5.289062 2.152344 -5.890625 C 2.742188 -6.480469 3.464844 -6.785156 4.304688 -6.785156 C 5.144531 -6.785156 5.867188 -6.480469 6.46875 -5.890625 C 7.058594 -5.289062 7.363281 -4.566406 7.363281 -3.738281 Z M 8.128906 -3.738281 C 8.128906 -4.261719 8.019531 -4.753906 7.824219 -5.222656 C 7.625 -5.679688 7.351562 -6.085938 7.003906 -6.433594 C 6.652344 -6.773438 6.25 -7.046875 5.789062 -7.242188 C 5.320312 -7.441406 4.828125 -7.550781 4.304688 -7.550781 C 3.78125 -7.550781 3.277344 -7.441406 2.820312 -7.242188 C 2.359375 -7.046875 1.957031 -6.773438 1.605469 -6.433594 C 1.257812 -6.085938 0.984375 -5.679688 0.785156 -5.222656 C 0.589844 -4.753906 0.492188 -4.261719 0.492188 -3.738281 C 0.492188 -3.210938 0.589844 -2.710938 0.785156 -2.25 C 0.984375 -1.78125 1.257812 -1.375 1.605469 -1.027344 C 1.957031 -0.675781 2.359375 -0.402344 2.820312 -0.207031 C 3.277344 -0.0117188 3.78125 0.0859375 4.304688 0.0859375 C 4.828125 0.0859375 5.320312 -0.0117188 5.789062 -0.207031 C 6.25 -0.402344 6.652344 -0.675781 7.003906 -1.027344 C 7.351562 -1.375 7.625 -1.78125 7.824219 -2.25 C 8.019531 -2.710938 8.128906 -3.210938 8.128906 -3.738281 Z M 8.128906 -3.738281 "/></g></g></g><g fill="#ffffff" fill-opacity="1"><g transform="translate(228.598757, 287.813301)"><g><path d="M 1.585938 -3.671875 L 1.585938 -6.699219 L 3.3125 -6.699219 C 3.757812 -6.699219 4.117188 -6.554688 4.390625 -6.269531 C 4.65625 -5.988281 4.796875 -5.636719 4.796875 -5.199219 C 4.796875 -4.765625 4.65625 -4.402344 4.371094 -4.109375 C 4.085938 -3.8125 3.738281 -3.671875 3.3125 -3.671875 Z M 5.5625 -5.191406 C 5.5625 -5.824219 5.320312 -6.371094 4.863281 -6.796875 C 4.414062 -7.210938 3.855469 -7.429688 3.203125 -7.429688 L 0.820312 -7.429688 L 0.820312 0 L 1.585938 0 L 1.585938 -2.9375 L 2.46875 -2.9375 L 4.65625 0 L 5.679688 0 L 3.386719 -2.9375 C 3.964844 -2.972656 4.457031 -3.179688 4.863281 -3.5625 C 5.320312 -3.988281 5.5625 -4.535156 5.5625 -5.191406 Z M 5.5625 -5.191406 "/></g></g></g><g fill="#ffffff" fill-opacity="1"><g transform="translate(235.853151, 287.813301)"><g><path d="M 7.671875 0 L 8.445312 0 L 6.71875 -7.921875 L 4.28125 -1.5625 L 1.847656 -7.921875 L 0.109375 0 L 0.894531 0 L 2.042969 -5.289062 L 4.28125 0.4375 L 6.511719 -5.289062 Z M 7.671875 0 "/></g></g></g><g fill="#ffffff" fill-opacity="1"><g transform="translate(245.718476, 287.813301)"><g><path d="M 2.019531 -2.730469 L 3.375 -6.152344 L 4.71875 -2.730469 Z M 6.632812 0 L 3.375 -7.941406 L 0.109375 0 L 0.941406 0 L 1.738281 -2.019531 L 5.003906 -2.019531 L 5.800781 0 Z M 6.632812 0 "/></g></g></g><g fill="#ffffff" fill-opacity="1"><g transform="translate(253.770345, 287.813301)"><g><path d="M 1.585938 -5.472656 L 5.757812 0.457031 L 5.757812 -7.429688 L 4.992188 -7.429688 L 4.992188 -1.964844 L 0.820312 -7.898438 L 0.820312 0 L 1.585938 0 Z M 1.585938 -5.472656 "/></g></g></g><g fill="#ffffff" fill-opacity="1"><g transform="translate(261.658346, 287.813301)"><g><path d="M 7.636719 -2.273438 L 6.796875 -2.273438 C 6.535156 -1.792969 6.171875 -1.398438 5.714844 -1.113281 C 5.253906 -0.820312 4.742188 -0.675781 4.195312 -0.675781 C 3.375 -0.675781 2.675781 -0.972656 2.097656 -1.585938 C 1.53125 -2.164062 1.257812 -2.875 1.257812 -3.703125 C 1.257812 -4.535156 1.53125 -5.246094 2.097656 -5.835938 C 2.359375 -6.109375 2.675781 -6.324219 3.039062 -6.488281 C 3.386719 -6.652344 3.738281 -6.742188 4.085938 -6.742188 C 4.425781 -6.742188 4.71875 -6.699219 4.980469 -6.621094 C 5.78125 -6.378906 6.378906 -5.898438 6.785156 -5.167969 L 7.625 -5.167969 C 7.34375 -5.867188 6.894531 -6.433594 6.269531 -6.871094 C 5.636719 -7.308594 4.949219 -7.527344 4.195312 -7.527344 C 3.15625 -7.527344 2.285156 -7.144531 1.5625 -6.390625 C 1.222656 -6.042969 0.960938 -5.625 0.777344 -5.167969 C 0.578125 -4.710938 0.492188 -4.21875 0.492188 -3.703125 C 0.492188 -2.65625 0.839844 -1.769531 1.5625 -1.027344 C 2.285156 -0.261719 3.15625 0.109375 4.195312 0.109375 C 4.949219 0.109375 5.636719 -0.109375 6.28125 -0.546875 C 6.90625 -0.984375 7.351562 -1.550781 7.636719 -2.273438 Z M 7.636719 -2.273438 "/></g></g></g><g fill="#ffffff" fill-opacity="1"><g transform="translate(270.933754, 287.813301)"><g><path d="M 5.234375 0 L 5.234375 -0.710938 L 1.585938 -0.710938 L 1.585938 -3.355469 L 5.125 -3.355469 L 5.125 -4.074219 L 1.585938 -4.074219 L 1.585938 -6.71875 L 5.234375 -6.71875 L 5.234375 -7.429688 L 0.820312 -7.429688 L 0.820312 0 Z M 5.234375 0 "/></g></g></g><g fill="#ffffff" fill-opacity="1"><g transform="translate(278.297394, 287.813301)"><g><path d="M 2.085938 -0.0664062 C 2.21875 -0.1875 2.285156 -0.328125 2.285156 -0.503906 C 2.285156 -0.675781 2.21875 -0.820312 2.085938 -0.941406 C 1.957031 -1.058594 1.8125 -1.125 1.640625 -1.125 C 1.464844 -1.125 1.320312 -1.058594 1.191406 -0.941406 C 1.058594 -0.808594 1.003906 -0.667969 1.003906 -0.503906 C 1.003906 -0.328125 1.058594 -0.1875 1.191406 -0.0664062 C 1.320312 0.0546875 1.464844 0.109375 1.640625 0.109375 C 1.8125 0.109375 1.957031 0.0546875 2.085938 -0.0664062 Z M 2.207031 -8.195312 L 1.070312 -8.195312 L 1.277344 -2.21875 L 2 -2.21875 Z M 2.207031 -8.195312 "/></g></g></g><path fill="#ffd9b4" d="M 196.65625 86.296875 C 197.957031 85.132812 199.667969 83.628906 201.992188 83.421875 C 202.675781 83.351562 203.292969 83.421875 203.90625 83.558594 C 195.5625 76.234375 188.722656 66.714844 181.066406 58.019531 C 170.601562 46.175781 164.515625 39.945312 152.066406 28.851562 C 145.707031 23.167969 141.195312 22.757812 137.636719 25.085938 C 135.515625 26.457031 131.550781 32.277344 133.191406 34.261719 C 124.164062 25.566406 118.421875 3.175781 104.878906 12.96875 C 98.109375 17.898438 101.527344 30.222656 100.503906 28.988281 C 95.234375 22.554688 75.0625 25.566406 92.980469 52.40625 C 94.003906 53.980469 78.207031 60.894531 85.730469 77.945312 C 98.996094 108.070312 102.828125 121.148438 117.394531 150.726562 C 118.007812 151.890625 118.695312 153.191406 119.515625 154.558594 C 123.480469 150.65625 127.585938 147.027344 131.480469 143.605469 Z M 196.65625 86.296875 " fill-opacity="1" fill-rule="nonzero"/><path fill="#ffd9b4" d="M 252.804688 223.441406 C 248.429688 219.8125 246.308594 213.71875 244.804688 208.101562 C 248.566406 195.574219 252.601562 187.972656 255.746094 175.304688 C 258.960938 162.640625 254.71875 144.769531 247.539062 129.226562 C 233.929688 106.90625 263.472656 90.75 255.8125 78.21875 C 255.746094 76.984375 252.328125 74.453125 251.300781 74.65625 C 244.257812 76.097656 237.894531 78.285156 232.21875 81.640625 C 232.492188 81.847656 232.765625 82.121094 232.972656 82.328125 C 237.964844 88.625 235.570312 94.101562 233.722656 98.074219 C 232.765625 100.195312 232.015625 101.976562 232.289062 103.484375 C 234.410156 113.136719 218.199219 148.125 215.804688 152.847656 C 212.183594 159.902344 207.050781 165.789062 201.992188 171.539062 C 198.847656 175.167969 195.5625 178.867188 192.757812 182.769531 C 182.5 197.214844 177.304688 218.234375 178.191406 241.035156 C 179.902344 239.804688 182.023438 239.117188 184.074219 238.570312 C 185.03125 238.296875 186.058594 237.953125 187.015625 237.613281 C 191.664062 235.832031 196.589844 235.285156 201.648438 234.804688 C 203.566406 234.667969 205.617188 234.53125 207.738281 234.53125 C 210.539062 234.53125 212.933594 234.804688 215.121094 235.421875 C 215.53125 235.488281 215.941406 235.625 216.355469 235.695312 C 220.183594 236.652344 226.679688 238.367188 225.996094 245.417969 C 225.519531 250.074219 218.542969 256.234375 206.984375 265.753906 C 205.546875 266.917969 204.179688 268.082031 202.742188 269.246094 C 222.714844 293.414062 241.179688 323.265625 262.789062 345.175781 C 293.90625 337.988281 327.074219 317.996094 343.96875 290.605469 C 343.96875 289.03125 343.96875 287.457031 343.96875 285.8125 C 311.824219 267.875 281.1875 247.0625 252.804688 223.441406 Z M 252.804688 223.441406 " fill-opacity="1" fill-rule="nonzero"/><path fill="#ffd9b4" d="M 230.101562 84.792969 C 230.101562 84.792969 230.03125 84.792969 229.894531 84.792969 C 225.929688 84.792969 212.660156 95.609375 207.050781 100.195312 C 206.367188 100.746094 205.480469 100.8125 204.726562 100.265625 C 204.042969 99.71875 203.769531 98.828125 204.113281 98.074219 C 205 95.816406 206.09375 93.214844 205.753906 90.886719 C 205.546875 89.105469 204.042969 87.121094 202.332031 87.257812 C 201.308594 87.324219 200.28125 88.214844 199.121094 89.242188 L 134.011719 146.414062 C 124.027344 155.175781 112.742188 165.171875 106.316406 177.839844 C 102.894531 184.617188 100.914062 192.21875 98.929688 199.542969 C 97.21875 206.1875 95.304688 213.101562 92.433594 219.398438 C 86.003906 233.847656 73.761719 246.71875 57.28125 256.851562 C 42.371094 266.027344 25 272.804688 11.117188 277.804688 C 12.828125 295.605469 14.535156 304.710938 22.675781 319.570312 L 23.152344 320.460938 C 24.863281 323.675781 28.554688 330.457031 32.042969 335.042969 C 37.789062 342.644531 47.980469 345.449219 56.117188 347.710938 C 58.167969 348.257812 60.082031 348.875 61.863281 349.351562 C 69.589844 342.367188 76.359375 335.589844 82.996094 329.019531 C 89.832031 322.171875 96.945312 315.050781 105.085938 307.792969 C 106.726562 306.355469 108.914062 304.300781 111.785156 303.890625 C 112.265625 303.820312 112.675781 303.820312 113.152344 303.820312 C 115.34375 303.820312 117.394531 304.644531 119.171875 305.394531 L 119.71875 305.601562 C 125.464844 307.859375 131.6875 309.09375 138.183594 309.09375 C 153.296875 309.09375 168.070312 302.589844 177.714844 291.769531 C 179.96875 289.167969 182.089844 286.363281 184.140625 283.554688 C 187.082031 279.582031 190.160156 275.339844 193.921875 271.847656 C 197 268.972656 200.898438 265.820312 204.660156 262.671875 C 211.976562 256.648438 222.03125 248.363281 222.304688 244.9375 C 222.578125 241.308594 219.976562 240.417969 215.464844 239.1875 C 214.984375 239.117188 214.574219 238.980469 214.164062 238.914062 C 212.386719 238.367188 210.265625 238.160156 207.804688 238.160156 C 205.820312 238.160156 203.703125 238.296875 201.992188 238.433594 C 197.203125 238.84375 192.621094 239.324219 188.382812 241.035156 C 187.355469 241.515625 186.261719 241.789062 185.238281 242.0625 C 181.679688 243.226562 179.421875 244.046875 178.398438 246.511719 C 177.988281 247.335938 177.167969 247.8125 176.347656 247.675781 C 175.523438 247.539062 174.839844 246.855469 174.773438 245.964844 C 172.789062 220.425781 178.328125 196.601562 189.683594 180.511719 C 192.621094 176.402344 195.972656 172.636719 199.121094 168.9375 C 204.179688 163.117188 209.035156 157.710938 212.386719 151 C 217.722656 140.59375 230.03125 111.289062 228.527344 104.234375 C 227.910156 101.496094 229.140625 98.964844 230.167969 96.429688 C 232.015625 92.800781 233.585938 89.242188 230.101562 84.792969 Z M 230.101562 84.792969 " fill-opacity="1" fill-rule="nonzero"/><path fill="#ffffff" d="M 284.402344 103.210938 C 284.332031 103.210938 284.332031 103.210938 284.265625 103.210938 C 282.964844 103.140625 282.074219 101.976562 282.144531 100.8125 C 283.582031 81.710938 280.570312 67.878906 272.910156 58.363281 C 266.414062 50.285156 255.882812 45.285156 245.417969 45.421875 C 244.121094 45.492188 243.164062 44.464844 243.164062 43.164062 C 243.164062 41.863281 244.121094 40.902344 245.417969 40.902344 C 245.554688 40.902344 245.828125 40.902344 245.964844 40.902344 C 257.59375 40.902344 269.21875 46.515625 276.46875 55.488281 C 284.8125 65.894531 288.164062 80.820312 286.65625 101.085938 C 286.589844 102.320312 285.496094 103.210938 284.402344 103.210938 Z M 284.402344 103.210938 " fill-opacity="1" fill-rule="nonzero"/><path fill="#ffffff" d="M 297.804688 102.523438 C 297.738281 102.523438 297.738281 102.523438 297.667969 102.523438 C 296.367188 102.457031 295.480469 101.292969 295.546875 100.128906 C 297.464844 74.589844 293.359375 56.035156 283.171875 43.230469 C 274.347656 32.277344 260.257812 25.632812 246.101562 25.773438 C 244.871094 25.839844 243.847656 24.8125 243.847656 23.511719 C 243.847656 22.210938 244.804688 21.253906 246.101562 21.253906 C 261.492188 21.046875 277.015625 28.375 286.726562 40.355469 C 297.738281 54.050781 302.113281 73.699219 300.0625 100.402344 C 299.925781 101.632812 298.96875 102.523438 297.804688 102.523438 Z M 297.804688 102.523438 " fill-opacity="1" fill-rule="nonzero"/><path fill="#ffffff" d="M 67.265625 212.074219 C 66.648438 212.074219 66.101562 211.867188 65.691406 211.457031 C 57.210938 203.242188 52.765625 190.847656 54.066406 179.140625 C 55.5 165.859375 63.707031 152.917969 79.027344 139.632812 C 79.984375 138.8125 81.351562 138.949219 82.171875 139.839844 C 82.996094 140.796875 82.859375 142.167969 81.96875 142.988281 C 67.46875 155.449219 59.808594 167.5 58.511719 179.550781 C 57.347656 189.890625 61.316406 200.84375 68.769531 208.101562 C 69.660156 208.992188 69.660156 210.429688 68.835938 211.253906 C 68.496094 211.867188 67.878906 212.074219 67.265625 212.074219 Z M 67.265625 212.074219 " fill-opacity="1" fill-rule="nonzero"/><path fill="#ffffff" d="M 53.039062 225.425781 C 52.425781 225.425781 51.878906 225.21875 51.46875 224.808594 C 40.457031 214.058594 34.574219 197.832031 36.214844 182.496094 C 38.132812 165.035156 48.867188 148.054688 69.179688 130.527344 C 70.136719 129.707031 71.503906 129.84375 72.324219 130.734375 C 73.144531 131.691406 73.007812 133.0625 72.121094 133.882812 C 52.699219 150.65625 42.4375 166.746094 40.730469 182.976562 C 39.226562 196.941406 44.492188 211.664062 54.613281 221.523438 C 55.5 222.414062 55.5 223.851562 54.679688 224.671875 C 54.132812 225.21875 53.585938 225.425781 53.039062 225.425781 Z M 53.039062 225.425781 " fill-opacity="1" fill-rule="nonzero"/><path fill="#ffffff" d="M 139.277344 136.074219 C 128.882812 118.683594 96.261719 54.734375 95.917969 54.050781 C 95.304688 52.886719 93.9375 52.472656 92.910156 53.089844 C 91.75 53.707031 91.335938 55.074219 91.953125 56.101562 C 92.226562 56.789062 124.917969 120.941406 135.515625 138.402344 C 135.722656 138.8125 136.132812 139.085938 136.476562 139.292969 L 139.550781 136.554688 C 139.484375 136.347656 139.414062 136.210938 139.277344 136.074219 Z M 139.277344 136.074219 " fill-opacity="1" fill-rule="nonzero"/><path fill="#ffffff" d="M 104.605469 29.332031 C 103.921875 28.304688 102.484375 28.03125 101.460938 28.714844 C 100.433594 29.402344 100.160156 30.839844 100.84375 31.867188 C 101.324219 32.550781 149.195312 103.757812 156.582031 120.464844 C 156.648438 120.667969 156.855469 120.941406 157.058594 121.148438 L 160.546875 118.136719 C 152.339844 100.128906 106.589844 32.207031 104.605469 29.332031 Z M 104.605469 29.332031 " fill-opacity="1" fill-rule="nonzero"/><path fill="#ffffff" d="M 136.203125 34.46875 C 135.449219 33.507812 134.082031 33.167969 133.054688 33.917969 C 132.097656 34.671875 131.757812 36.042969 132.507812 37.070312 L 179.011719 101.910156 L 182.433594 98.894531 Z M 136.203125 34.46875 " fill-opacity="1" fill-rule="nonzero"/><path fill="#ffffff" d="M 203.222656 230.011719 C 197.136719 230.011719 193.03125 229.054688 192.964844 228.984375 C 191.734375 228.710938 190.980469 227.410156 191.390625 226.179688 C 191.800781 224.945312 192.964844 224.191406 194.195312 224.601562 C 195.359375 224.878906 221.277344 231.246094 241.109375 207.691406 C 241.929688 206.734375 243.367188 206.664062 244.257812 207.417969 C 245.214844 208.238281 245.28125 209.675781 244.53125 210.566406 C 230.785156 226.929688 213.890625 230.011719 203.222656 230.011719 Z M 203.222656 230.011719 " fill-opacity="1" fill-rule="nonzero"/><path fill="#e0b694" d="M 137.363281 172.15625 C 137.160156 172.15625 136.816406 172.089844 136.613281 172.019531 C 135.378906 171.539062 134.832031 170.308594 135.242188 169.144531 C 135.925781 167.089844 138.117188 160.996094 170.328125 129.570312 C 186.125 114.164062 201.582031 100.128906 201.71875 99.921875 C 202.605469 99.101562 204.042969 99.167969 204.863281 100.058594 C 205.683594 100.949219 205.617188 102.386719 204.726562 103.210938 C 187.765625 118.683594 142.835938 160.929688 139.484375 170.511719 C 139.210938 171.609375 138.253906 172.15625 137.363281 172.15625 Z M 137.363281 172.15625 " fill-opacity="1" fill-rule="nonzero"/><path fill="#e0b694" d="M 151.179688 187.90625 C 150.90625 187.90625 150.496094 187.835938 150.222656 187.699219 C 149.058594 187.152344 148.578125 185.78125 149.058594 184.6875 C 155.007812 171.953125 169.507812 154.082031 192.28125 131.691406 C 209.105469 115.054688 224.492188 101.976562 224.628906 101.839844 C 225.585938 101.019531 227.023438 101.15625 227.773438 102.046875 C 228.59375 103.003906 228.457031 104.441406 227.570312 105.195312 C 227.023438 105.742188 166.90625 157.164062 153.230469 186.535156 C 152.820312 187.355469 152 187.90625 151.179688 187.90625 Z M 151.179688 187.90625 " fill-opacity="1" fill-rule="nonzero"/><path fill="#e0b694" d="M 132.78125 210.636719 L 132.714844 210.636719 C 131.414062 210.566406 130.523438 209.472656 130.523438 208.308594 C 130.796875 202.417969 133.671875 196.738281 138.390625 193.109375 C 139.347656 192.355469 140.785156 192.492188 141.535156 193.519531 C 142.289062 194.476562 142.152344 195.914062 141.125 196.667969 C 137.5 199.476562 135.242188 203.859375 135.039062 208.445312 C 134.96875 209.675781 134.011719 210.636719 132.78125 210.636719 Z M 132.78125 210.636719 " fill-opacity="1" fill-rule="nonzero"/><path fill="#e0b694" d="M 114.523438 198.652344 C 113.976562 198.652344 113.359375 198.449219 113.015625 198.039062 C 112.539062 197.558594 112.265625 197.011719 112.265625 196.324219 C 112.265625 194.957031 115.753906 186.808594 118.96875 183.933594 C 119.855469 183.113281 121.292969 183.179688 122.113281 184.070312 C 122.933594 184.960938 122.867188 186.398438 121.976562 187.21875 C 119.855469 189.136719 117.1875 195.09375 116.777344 196.53125 C 116.710938 197.011719 116.574219 197.421875 116.164062 197.832031 C 115.683594 198.3125 115.136719 198.652344 114.523438 198.652344 Z M 114.523438 198.652344 " fill-opacity="1" fill-rule="nonzero"/></svg>